<svg width="70" height="24" viewBox="0 0 70 24" fill="none" xmlns="http://www.w3.org/2000/svg">
<path d="M3.55824 0.634766L0.0117188 8.8806H2.32069L2.97507 7.2294H6.77927L7.43026 8.8806H9.79008L6.24695 0.634766H3.55824ZM4.87039 2.55382L6.02996 5.43919H3.70743L4.87039 2.55382Z" fill="white"/>
<path d="M10.0352 8.87865V0.632812L13.3163 0.645001L15.2248 5.96139L17.0875 0.632812H20.3424V8.87865H18.281V2.80277L16.0958 8.87865H14.2879L12.0966 2.80277V8.87865H10.0352Z" fill="white"/>
<path d="M21.7539 8.87872V0.632812H28.4808V2.4773H23.8371V3.88777H28.3723V5.62376H23.8371V7.08849H28.4808V8.87872H21.7539Z" fill="white"/>
<path d="M29.6719 0.634766V8.88068H31.7334V5.9512H32.6013L35.0731 8.88068H37.5923L34.8798 5.84271C35.993 5.74877 37.1413 4.79332 37.1413 3.30995C37.1413 1.57472 35.7794 0.634766 34.2593 0.634766H29.6719ZM31.7334 2.47924H34.0898C34.6551 2.47924 35.0663 2.92143 35.0663 3.34724C35.0663 3.89506 34.5335 4.21523 34.1203 4.21523H31.7334V2.47924Z" fill="white"/>
<path d="M40.0912 8.87872H37.9863V0.632812H40.0912V8.87872Z" fill="white"/>
<path d="M45.0811 8.87872H44.6267C42.4284 8.87872 41.0938 7.14682 41.0938 4.78967C41.0938 2.3743 42.4135 0.632812 45.1896 0.632812H47.4681V2.58579H45.1063C43.9793 2.58579 43.1824 3.46525 43.1824 4.81002C43.1824 6.40694 44.0937 7.07764 45.4066 7.07764H45.9491L45.0811 8.87872Z" fill="white"/>
<path d="M49.568 0.634766L46.0215 8.8806H48.3305L48.9848 7.2294H52.789L53.44 8.8806H55.7998L52.2567 0.634766H49.568ZM50.8802 2.55382L52.0397 5.43919H49.7172L50.8802 2.55382Z" fill="white"/>
<path d="M56.0391 8.87872V0.632812H58.66L62.0065 5.81364V0.632812H64.068V8.87872H61.5318L58.1005 3.56228V8.87872H56.0391Z" fill="white"/>
<path d="M15.0273 23.3084V15.0625H21.7543V16.907H17.1105V18.3175H21.6458V20.0534H17.1105V21.5182H21.7543V23.3084H15.0273Z" fill="white"/>
<path d="M47.9883 23.3084V15.0625H54.7152V16.907H50.0715V18.3175H54.585V20.0534H50.0715V21.5182H54.7152V23.3084H47.9883Z" fill="white"/>
<path d="M22.0155 23.3083L25.2908 19.2363L21.9375 15.0625H24.5347L26.5317 17.6427L28.5355 15.0625H31.031L27.7218 19.1854L31.0031 23.3083H28.4063L26.4673 20.7688L24.5754 23.3083H22.0155Z" fill="white"/>
<path d="M31.2461 15.0635V23.3094H33.3618V20.7054H35.5318C37.3679 20.7054 38.7596 19.7313 38.7596 17.837C38.7596 16.2677 37.6681 15.0635 35.7997 15.0635H31.2461ZM33.3618 16.9283H35.6471C36.2402 16.9283 36.6643 17.2919 36.6643 17.8777C36.6643 18.428 36.2424 18.827 35.6403 18.827H33.3618V16.9283Z" fill="white"/>
<path d="M39.6562 15.0625V23.3084H41.7177V20.3789H42.5857L45.0575 23.3084H47.5767L44.8642 20.2704C45.9774 20.1765 47.1257 19.2211 47.1257 17.7377C47.1257 16.0025 45.7638 15.0625 44.2437 15.0625H39.6562ZM41.7177 16.907H44.0742C44.6395 16.907 45.0507 17.3492 45.0507 17.775C45.0507 18.3228 44.5179 18.643 44.1047 18.643H41.7177V16.907Z" fill="white"/>
<path d="M55.67 23.3084V21.5182H59.7956C60.4061 21.5182 60.6704 21.1883 60.6704 20.8265C60.6704 20.4799 60.4069 20.1294 59.7956 20.1294H57.9313C56.3107 20.1294 55.4082 19.1421 55.4082 17.6597C55.4082 16.3375 56.2347 15.0625 58.6428 15.0625H62.6573L61.7893 16.9178H58.3173C57.6536 16.9178 57.4493 17.2661 57.4493 17.5987C57.4493 17.9405 57.7018 18.3175 58.2088 18.3175H60.1618C61.9683 18.3175 62.7522 19.3422 62.7522 20.6841C62.7522 22.1268 61.8787 23.3084 60.0635 23.3084H55.67Z" fill="white"/>
<path d="M63.2344 23.3084V21.5182H67.3601C67.9705 21.5182 68.2349 21.1883 68.2349 20.8265C68.2349 20.4799 67.9714 20.1294 67.3601 20.1294H65.4957C63.8752 20.1294 62.9727 19.1421 62.9727 17.6597C62.9727 16.3375 63.7992 15.0625 66.2073 15.0625H70.1397L69.3537 16.9178H65.8818C65.2181 16.9178 65.0138 17.2661 65.0138 17.5987C65.0138 17.9405 65.2663 18.3175 65.7733 18.3175H67.7263C69.5328 18.3175 70.3167 19.3422 70.3167 20.6841C70.3167 22.1268 69.4432 23.3084 67.6279 23.3084H63.2344Z" fill="white"/>
</svg>
