<svg width="36" height="29" viewBox="0 0 36 29" fill="none" xmlns="http://www.w3.org/2000/svg">
<path d="M21.09 28.9954C28.8851 29.033 36 22.5805 36 14.7311C36 6.14807 28.8851 0.214571 21.09 0.217775H14.3813C6.49331 0.214571 0 6.14967 0 14.7311C0 22.5821 6.49331 29.033 14.3813 28.9954H21.09Z" fill="white"/>
<path d="M14.4128 1.40723C7.20419 1.40963 1.36373 7.30468 1.36133 14.5806C1.36373 21.8557 7.20419 27.7507 14.4128 27.7531C21.6223 27.7507 27.4651 21.8557 27.466 14.5806C27.4651 7.30468 21.6231 1.40963 14.4128 1.40723ZM6.14039 14.5806C6.13888 12.8983 6.64495 11.2547 7.59246 9.86464C8.53998 8.47454 9.88487 7.40258 11.4514 6.78886V22.3715C9.88474 21.7582 8.5397 20.6864 7.59213 19.2964C6.64457 17.9064 6.1386 16.2628 6.14039 14.5806ZM17.3735 22.3747V6.78806C18.9412 7.4009 20.2872 8.47278 21.2354 9.86334C22.1837 11.2539 22.6898 12.8984 22.6877 14.5814C22.6895 16.2643 22.1832 17.9086 21.235 19.2991C20.2869 20.6896 18.941 21.7616 17.3735 22.3747Z" fill="white"/>
<path fill-rule="evenodd" clip-rule="evenodd" d="M1.36133 14.5806C1.36373 7.30468 7.20419 1.40963 14.4128 1.40723C21.6231 1.40963 27.4651 7.30468 27.466 14.5806C27.4651 21.8557 21.6223 27.7507 14.4128 27.7531C7.20419 27.7507 1.36373 21.8557 1.36133 14.5806ZM7.59246 9.86465C6.64495 11.2547 6.13888 12.8983 6.14039 14.5806C6.1386 16.2628 6.64457 17.9064 7.59213 19.2964C8.5397 20.6864 9.88474 21.7582 11.4514 22.3715V6.78886C9.88487 7.40258 8.53998 8.47454 7.59246 9.86465ZM17.3735 6.78806V22.3747C18.941 21.7616 20.2869 20.6896 21.235 19.2991C22.1832 17.9086 22.6895 16.2643 22.6877 14.5814C22.6898 12.8984 22.1837 11.2539 21.2354 9.86334C20.2872 8.47278 18.9412 7.4009 17.3735 6.78806Z" fill="#393652"/>
</svg>
